<?xml version="1.0" standalone="no"?>
<!DOCTYPE svg PUBLIC "-//W3C//DTD SVG 20010904//EN"
 "http://www.w3.org/TR/2001/REC-SVG-20010904/DTD/svg10.dtd">
<svg version="1.0" xmlns="http://www.w3.org/2000/svg"
 width="236.000000pt" height="236.000000pt" viewBox="0 0 236.000000 236.000000"
 preserveAspectRatio="xMidYMid meet">
<metadata>
Created by potrace 1.11, written by Peter Selinger 2001-2013
</metadata>
<g transform="translate(0.000000,236.000000) scale(0.100000,-0.100000)"
fill="#000000" stroke="none">
<path d="M1642 1581 c-144 -50 -229 -190 -239 -391 -11 -217 69 -372 221 -429
153 -57 396 8 396 106 0 59 -12 61 -92 18 -66 -36 -80 -39 -148 -39 -114 -1
-176 38 -222 139 -19 43 -23 67 -23 170 0 133 10 179 54 246 72 108 220 128
347 48 61 -39 76 -33 72 28 -3 41 -7 50 -37 70 -80 54 -228 69 -329 34z"/>
<path d="M321 1576 c-8 -9 -10 -127 -9 -417 l3 -404 52 -3 53 -3 2 365 3 365
141 -362 142 -362 53 0 54 0 145 354 145 354 5 -354 5 -354 55 0 55 0 3 398
c1 263 -1 405 -8 417 -9 17 -21 20 -79 20 -51 0 -74 -5 -89 -17 -12 -10 -77
-154 -147 -323 -70 -168 -130 -308 -134 -313 -4 -4 -62 131 -130 300 -67 170
-132 318 -144 331 -18 19 -31 22 -93 22 -48 0 -75 -4 -83 -14z"/>
</g>
</svg>
